<?xml version="1.0" encoding="us-ascii" standalone="no"?><svg xmlns="http://www.w3.org/2000/svg" xmlns:xlink="http://www.w3.org/1999/xlink" contentStyleType="text/css" height="990px" preserveAspectRatio="none" style="width:508px;height:990px;background:#FFFFFF;" version="1.1" viewBox="0 0 508 990" width="508px" zoomAndPan="magnify"><defs/><g><!--cluster HotelBooking--><g id="cluster_HotelBooking"><rect fill="none" height="977" style="stroke:#181818;stroke-width:1.0;" width="495" x="7" y="7"/><text fill="#000000" font-family="sans-serif" font-size="14" font-weight="bold" lengthAdjust="spacing" textLength="153" x="178" y="23.5332">Hotel Booking System</text></g><!--cluster Auth--><g id="cluster_Auth"><polygon fill="none" points="34.5,51,72.5,51,79.5,74.6094,323,74.6094,323,159,34.5,159,34.5,51" style="stroke:#000000;stroke-width:1.5;"/><line style="stroke:#000000;stroke-width:1.5;" x1="34.5" x2="79.5" y1="74.6094" y2="74.6094"/><text fill="#000000" font-family="sans-serif" font-size="14" font-weight="bold" lengthAdjust="spacing" textLength="32" x="38.5" y="67.5332">Auth</text></g><!--cluster Account--><g id="cluster_Account"><polygon fill="none" points="31,183,94,183,101,206.6094,333,206.6094,333,291,31,291,31,183" style="stroke:#000000;stroke-width:1.5;"/><line style="stroke:#000000;stroke-width:1.5;" x1="31" x2="101" y1="206.6094" y2="206.6094"/><text fill="#000000" font-family="sans-serif" font-size="14" font-weight="bold" lengthAdjust="spacing" textLength="57" x="35" y="199.5332">Account</text></g><!--cluster Hotel--><g id="cluster_Hotel"><polygon fill="none" points="36,538,79,538,86,561.6094,319.5,561.6094,319.5,737,36,737,36,538" style="stroke:#000000;stroke-width:1.5;"/><line style="stroke:#000000;stroke-width:1.5;" x1="36" x2="86" y1="561.6094" y2="561.6094"/><text fill="#000000" font-family="sans-serif" font-size="14" font-weight="bold" lengthAdjust="spacing" textLength="37" x="40" y="554.5332">Hotel</text></g><!--cluster Room--><g id="cluster_Room"><polygon fill="none" points="201,315,247,315,254,338.6094,478,338.6094,478,514,201,514,201,315" style="stroke:#000000;stroke-width:1.5;"/><line style="stroke:#000000;stroke-width:1.5;" x1="201" x2="254" y1="338.6094" y2="338.6094"/><text fill="#000000" font-family="sans-serif" font-size="14" font-weight="bold" lengthAdjust="spacing" textLength="40" x="205" y="331.5332">Room</text></g><!--cluster Booking--><g id="cluster_Booking"><polygon fill="none" points="31,761,95,761,102,784.6094,333,784.6094,333,960,31,960,31,761" style="stroke:#000000;stroke-width:1.5;"/><line style="stroke:#000000;stroke-width:1.5;" x1="31" x2="102" y1="784.6094" y2="784.6094"/><text fill="#000000" font-family="sans-serif" font-size="14" font-weight="bold" lengthAdjust="spacing" textLength="58" x="35" y="777.5332">Booking</text></g><g id="elem_register"><ellipse cx="99.5928" cy="114.9872" fill="#F1F1F1" rx="49.0928" ry="15.4872" style="stroke:#181818;stroke-width:0.5;"/><text fill="#000000" font-family="sans-serif" font-size="14" lengthAdjust="spacing" textLength="53" x="70.6382" y="119.3807">Register</text></g><g id="elem_login_logout"><ellipse cx="264.598" cy="114.9034" fill="#F1F1F1" rx="42.598" ry="27.9034" style="stroke:#181818;stroke-width:0.5;"/><text fill="#000000" font-family="sans-serif" font-size="14" lengthAdjust="spacing" textLength="39" x="245.098" y="109.8272">Login/</text><text fill="#000000" font-family="sans-serif" font-size="14" lengthAdjust="spacing" textLength="44" x="242.598" y="127.4366">Logout</text></g><g id="elem_view_accounts"><ellipse cx="264.4975" cy="246.9034" fill="#F1F1F1" rx="52.4975" ry="27.9034" style="stroke:#181818;stroke-width:0.5;"/><text fill="#000000" font-family="sans-serif" font-size="14" lengthAdjust="spacing" textLength="29" x="249.9975" y="241.8272">View</text><text fill="#000000" font-family="sans-serif" font-size="14" lengthAdjust="spacing" textLength="58" x="235.4975" y="259.4366">Accounts</text></g><g id="elem_manage_accounts"><ellipse cx="99.4975" cy="246.9034" fill="#F1F1F1" rx="52.4975" ry="27.9034" style="stroke:#181818;stroke-width:0.5;"/><text fill="#000000" font-family="sans-serif" font-size="14" lengthAdjust="spacing" textLength="51" x="73.9975" y="241.8272">Manage</text><text fill="#000000" font-family="sans-serif" font-size="14" lengthAdjust="spacing" textLength="58" x="70.4975" y="259.4366">Accounts</text></g><g id="elem_view_hotels"><ellipse cx="264.5624" cy="647.9034" fill="#F1F1F1" rx="39.0624" ry="27.9034" style="stroke:#181818;stroke-width:0.5;"/><text fill="#000000" font-family="sans-serif" font-size="14" lengthAdjust="spacing" textLength="29" x="250.0624" y="642.8272">View</text><text fill="#000000" font-family="sans-serif" font-size="14" lengthAdjust="spacing" textLength="39" x="245.0624" y="660.4366">Hotels</text></g><g id="elem_create_hotels"><ellipse cx="99.3909" cy="601.9034" fill="#F1F1F1" rx="41.8909" ry="27.9034" style="stroke:#181818;stroke-width:0.5;"/><text fill="#000000" font-family="sans-serif" font-size="14" lengthAdjust="spacing" textLength="43" x="77.8909" y="596.8272">Create</text><text fill="#000000" font-family="sans-serif" font-size="14" lengthAdjust="spacing" textLength="39" x="79.8909" y="614.4366">Hotels</text></g><g id="elem_manage_hotels"><ellipse cx="99.5477" cy="692.9034" fill="#F1F1F1" rx="47.5477" ry="27.9034" style="stroke:#181818;stroke-width:0.5;"/><text fill="#000000" font-family="sans-serif" font-size="14" lengthAdjust="spacing" textLength="51" x="74.0477" y="687.8272">Manage</text><text fill="#000000" font-family="sans-serif" font-size="14" lengthAdjust="spacing" textLength="39" x="80.0477" y="705.4366">Hotels</text></g><g id="elem_view_rooms"><ellipse cx="419.598" cy="469.9034" fill="#F1F1F1" rx="42.598" ry="27.9034" style="stroke:#181818;stroke-width:0.5;"/><text fill="#000000" font-family="sans-serif" font-size="14" lengthAdjust="spacing" textLength="29" x="405.098" y="464.8272">View</text><text fill="#000000" font-family="sans-serif" font-size="14" lengthAdjust="spacing" textLength="44" x="397.598" y="482.4366">Rooms</text></g><g id="elem_create_rooms"><ellipse cx="264.598" cy="378.9034" fill="#F1F1F1" rx="42.598" ry="27.9034" style="stroke:#181818;stroke-width:0.5;"/><text fill="#000000" font-family="sans-serif" font-size="14" lengthAdjust="spacing" textLength="43" x="243.098" y="373.8272">Create</text><text fill="#000000" font-family="sans-serif" font-size="14" lengthAdjust="spacing" textLength="44" x="242.598" y="391.4366">Rooms</text></g><g id="elem_manage_rooms"><ellipse cx="264.5477" cy="469.9034" fill="#F1F1F1" rx="47.5477" ry="27.9034" style="stroke:#181818;stroke-width:0.5;"/><text fill="#000000" font-family="sans-serif" font-size="14" lengthAdjust="spacing" textLength="51" x="239.0477" y="464.8272">Manage</text><text fill="#000000" font-family="sans-serif" font-size="14" lengthAdjust="spacing" textLength="44" x="242.5477" y="482.4366">Rooms</text></g><g id="elem_view_bookings"><ellipse cx="264.4975" cy="915.9034" fill="#F1F1F1" rx="52.4975" ry="27.9034" style="stroke:#181818;stroke-width:0.5;"/><text fill="#000000" font-family="sans-serif" font-size="14" lengthAdjust="spacing" textLength="29" x="249.9975" y="910.8272">View</text><text fill="#000000" font-family="sans-serif" font-size="14" lengthAdjust="spacing" textLength="58" x="235.4975" y="928.4366">Bookings</text></g><g id="elem_create_bookings"><ellipse cx="99.4975" cy="824.9034" fill="#F1F1F1" rx="52.4975" ry="27.9034" style="stroke:#181818;stroke-width:0.5;"/><text fill="#000000" font-family="sans-serif" font-size="14" lengthAdjust="spacing" textLength="43" x="77.9975" y="819.8272">Create</text><text fill="#000000" font-family="sans-serif" font-size="14" lengthAdjust="spacing" textLength="58" x="70.4975" y="837.4366">Bookings</text></g><g id="elem_manage_bookings"><ellipse cx="99.4975" cy="915.9034" fill="#F1F1F1" rx="52.4975" ry="27.9034" style="stroke:#181818;stroke-width:0.5;"/><text fill="#000000" font-family="sans-serif" font-size="14" lengthAdjust="spacing" textLength="51" x="73.9975" y="910.8272">Manage</text><text fill="#000000" font-family="sans-serif" font-size="14" lengthAdjust="spacing" textLength="58" x="70.4975" y="928.4366">Bookings</text></g><!--link register to login_logout--><!--link manage_accounts to view_accounts--><!--link manage_accounts to view_accounts--><g id="link_manage_accounts_view_accounts"><path d="M149.01,256.33 C169.79,256.33 187.93,256.33 208.74,256.33 " fill="none" id="manage_accounts-to-view_accounts-1" style="stroke:#181818;stroke-width:1.0;stroke-dasharray:7.0,7.0;"/><polygon fill="#181818" points="214.74,256.33,205.74,252.33,209.74,256.33,205.74,260.33,214.74,256.33" style="stroke:#181818;stroke-width:1.0;"/><text fill="#000000" font-family="sans-serif" font-size="13" lengthAdjust="spacing" textLength="55" x="125.88" y="270.8251">&#171;include&#187;</text></g><!--link manage_hotels to view_hotels--><g id="link_manage_hotels_view_hotels"><path d="M127.86,670.5 C159.84,670.5 205.23,670.5 235.04,670.5 " fill="none" id="manage_hotels-to-view_hotels" style="stroke:#181818;stroke-width:1.0;stroke-dasharray:7.0,7.0;"/><polygon fill="#181818" points="241.04,670.5,232.04,666.5,236.04,670.5,232.04,674.5,241.04,670.5" style="stroke:#181818;stroke-width:1.0;"/><text fill="#000000" font-family="sans-serif" font-size="13" lengthAdjust="spacing" textLength="55" x="128.45" y="666.9951">&#171;include&#187;</text></g><!--link create_hotels to view_hotels--><g id="link_create_hotels_view_hotels"><path d="M123.49,625 C155.31,625 205.05,625 236.07,625 " fill="none" id="create_hotels-to-view_hotels" style="stroke:#181818;stroke-width:1.0;stroke-dasharray:7.0,7.0;"/><polygon fill="#181818" points="242.07,625,233.07,621,237.07,625,233.07,629,242.07,625" style="stroke:#181818;stroke-width:1.0;"/><text fill="#000000" font-family="sans-serif" font-size="13" lengthAdjust="spacing" textLength="55" x="183.78" y="621.4951">&#171;include&#187;</text></g><!--link manage_rooms to view_rooms--><g id="link_manage_rooms_view_rooms"><path d="M312.27,470 C332.91,470 350.86,470 370.88,470 " fill="none" id="manage_rooms-to-view_rooms" style="stroke:#181818;stroke-width:1.0;stroke-dasharray:7.0,7.0;"/><polygon fill="#181818" points="376.88,470,367.88,466,371.88,470,367.88,474,376.88,470" style="stroke:#181818;stroke-width:1.0;"/><text fill="#000000" font-family="sans-serif" font-size="13" lengthAdjust="spacing" textLength="55" x="288.58" y="484.4951">&#171;include&#187;</text></g><!--link create_rooms to view_rooms--><g id="link_create_rooms_view_rooms"><path d="M307.4,379 C353.43,379 420,379 420,379 C420,379 420,408.99 420,435.71 " fill="none" id="create_rooms-to-view_rooms" style="stroke:#181818;stroke-width:1.0;stroke-dasharray:7.0,7.0;"/><polygon fill="#181818" points="420,441.71,424,432.71,420,436.71,416,432.71,420,441.71" style="stroke:#181818;stroke-width:1.0;"/><text fill="#000000" font-family="sans-serif" font-size="13" lengthAdjust="spacing" textLength="55" x="339.05" y="393.4951">&#171;include&#187;</text></g><!--link create_bookings to view_hotels--><g id="link_create_bookings_view_hotels"><path d="M152.32,825 C200.75,825 265,825 265,825 C265,825 265,731.96 265,682.05 " fill="none" id="create_bookings-to-view_hotels" style="stroke:#181818;stroke-width:1.0;stroke-dasharray:7.0,7.0;"/><polygon fill="#181818" points="265,676.05,261,685.05,265,681.05,269,685.05,265,676.05" style="stroke:#181818;stroke-width:1.0;"/><text fill="#000000" font-family="sans-serif" font-size="13" lengthAdjust="spacing" textLength="55" x="209" y="821.3551">&#171;include&#187;</text></g><!--link view_hotels to view_rooms--><g id="link_view_hotels_view_rooms"><path d="M303.74,648 C349.8,648 420,648 420,648 C420,648 420,554.4 420,504.2 " fill="none" id="view_hotels-to-view_rooms" style="stroke:#181818;stroke-width:1.0;stroke-dasharray:7.0,7.0;"/><polygon fill="#181818" points="420,498.2,416,507.2,420,503.2,424,507.2,420,498.2" style="stroke:#181818;stroke-width:1.0;"/><text fill="#000000" font-family="sans-serif" font-size="13" lengthAdjust="spacing" textLength="55" x="364" y="645.7251">&#171;include&#187;</text></g><!--link manage_bookings to view_bookings--><g id="link_manage_bookings_view_bookings"><path d="M152.16,916 C171.21,916 186.72,916 205.77,916 " fill="none" id="manage_bookings-to-view_bookings" style="stroke:#181818;stroke-width:1.0;stroke-dasharray:7.0,7.0;"/><polygon fill="#181818" points="211.77,916,202.77,912,206.77,916,202.77,920,211.77,916" style="stroke:#181818;stroke-width:1.0;"/><text fill="#000000" font-family="sans-serif" font-size="13" lengthAdjust="spacing" textLength="55" x="125.97" y="930.4951">&#171;include&#187;</text></g><!--SRC=[ZLGzJyGm3DtpAymjJC2Eq4d0mW0B9rW0eP2QDg9DgjG57OZ_Jk9BhstQeilGni_lnVRhnr7jP5v98BJVGAv58PeFRMhfP0KRsfO83JcjgAtAGUPM6wHjZM0T5LQ84jy9o8BJUK6GQOUAj3L278DKP1qyDEX0Dh0AczKUthGrkikiqeQJ70B7FUV64fOzXyEE8qIe94tk-uoPAsjzcpbijWrXjGeQJdJuZm2_-59BzI5phxnigM1cs4H6M6s3IZQUS8-vziSv9haOJ6ctDjVcxDdukss9oMM0Nai6zeBk13XvAdIMeNd9x9SvMK_PloBfL2dRcjtHSJ_NxwF6hsSJ2GspFptqAYCoLTn9umiaceh1gIh19sFCrqfLfwS94yxXua8RLROPhjUpy_EZx1_gykoS7anUS3nbNpkKX2E-OcXHqJarKCJ94iK8xQUDyNJMi4Qr3z2a_jnRktldmsRPdP0TcED2kEnDpuxjBV0xPtf-j63C7uBzYBlmNrSELAIUn2-V6nh_1MQSYOI1EMyHMVPdf8czBgiwbqQgwCb4bPnsu5iqP1naS5A-5-sHEPj_nHy0]--></g></svg>